<mxfile host="Electron" agent="Mozilla/5.0 (Windows NT 10.0; Win64; x64) AppleWebKit/537.36 (KHTML, like Gecko) draw.io/27.0.9 Chrome/134.0.6998.205 Electron/35.4.0 Safari/537.36" version="27.0.9">
  <diagram name="Page-1" id="re16Skt-d8kVSGhAPpvd">
    <mxGraphModel dx="2390" dy="1999" grid="1" gridSize="10" guides="1" tooltips="1" connect="1" arrows="1" fold="1" page="1" pageScale="1" pageWidth="850" pageHeight="1100" math="0" shadow="0">
      <root>
        <mxCell id="0" />
        <mxCell id="1" parent="0" />
        <mxCell id="mfJ3xq1MAe3Upkgcx-KW-1" value="User" style="whiteSpace=wrap;html=1;align=center;" vertex="1" parent="1">
          <mxGeometry x="70" y="80" width="120" height="60" as="geometry" />
        </mxCell>
        <mxCell id="mfJ3xq1MAe3Upkgcx-KW-2" value="Draft" style="whiteSpace=wrap;html=1;align=center;" vertex="1" parent="1">
          <mxGeometry x="630" y="640" width="120" height="60" as="geometry" />
        </mxCell>
        <mxCell id="mfJ3xq1MAe3Upkgcx-KW-3" value="Group" style="whiteSpace=wrap;html=1;align=center;" vertex="1" parent="1">
          <mxGeometry x="70" y="640" width="120" height="60" as="geometry" />
        </mxCell>
        <mxCell id="mfJ3xq1MAe3Upkgcx-KW-5" value="Shift" style="whiteSpace=wrap;html=1;align=center;" vertex="1" parent="1">
          <mxGeometry x="630" y="360" width="120" height="60" as="geometry" />
        </mxCell>
        <mxCell id="mfJ3xq1MAe3Upkgcx-KW-6" value="Session" style="whiteSpace=wrap;html=1;align=center;" vertex="1" parent="1">
          <mxGeometry x="70" y="-140" width="120" height="60" as="geometry" />
        </mxCell>
        <mxCell id="mfJ3xq1MAe3Upkgcx-KW-7" value="" style="endArrow=none;html=1;rounded=0;" edge="1" parent="1" source="mfJ3xq1MAe3Upkgcx-KW-6" target="mfJ3xq1MAe3Upkgcx-KW-1">
          <mxGeometry relative="1" as="geometry">
            <mxPoint x="340" y="460" as="sourcePoint" />
            <mxPoint x="500" y="460" as="targetPoint" />
          </mxGeometry>
        </mxCell>
        <mxCell id="mfJ3xq1MAe3Upkgcx-KW-28" value="1" style="edgeLabel;html=1;align=center;verticalAlign=middle;resizable=0;points=[];" vertex="1" connectable="0" parent="mfJ3xq1MAe3Upkgcx-KW-7">
          <mxGeometry x="-0.39" y="1" relative="1" as="geometry">
            <mxPoint x="9" y="-39" as="offset" />
          </mxGeometry>
        </mxCell>
        <mxCell id="mfJ3xq1MAe3Upkgcx-KW-29" value="1" style="edgeLabel;html=1;align=center;verticalAlign=middle;resizable=0;points=[];" vertex="1" connectable="0" parent="mfJ3xq1MAe3Upkgcx-KW-7">
          <mxGeometry x="0.535" y="-1" relative="1" as="geometry">
            <mxPoint x="11" y="27" as="offset" />
          </mxGeometry>
        </mxCell>
        <mxCell id="mfJ3xq1MAe3Upkgcx-KW-49" value="authenticates" style="edgeLabel;html=1;align=center;verticalAlign=middle;resizable=0;points=[];" vertex="1" connectable="0" parent="mfJ3xq1MAe3Upkgcx-KW-7">
          <mxGeometry x="-0.04" y="2" relative="1" as="geometry">
            <mxPoint x="-2" as="offset" />
          </mxGeometry>
        </mxCell>
        <mxCell id="mfJ3xq1MAe3Upkgcx-KW-8" value="" style="endArrow=none;html=1;rounded=0;" edge="1" parent="1" source="mfJ3xq1MAe3Upkgcx-KW-1" target="mfJ3xq1MAe3Upkgcx-KW-9">
          <mxGeometry relative="1" as="geometry">
            <mxPoint x="340" y="460" as="sourcePoint" />
            <mxPoint x="420" y="300" as="targetPoint" />
          </mxGeometry>
        </mxCell>
        <mxCell id="mfJ3xq1MAe3Upkgcx-KW-38" value="*" style="edgeLabel;html=1;align=center;verticalAlign=middle;resizable=0;points=[];" vertex="1" connectable="0" parent="mfJ3xq1MAe3Upkgcx-KW-8">
          <mxGeometry x="-0.8643" y="-3" relative="1" as="geometry">
            <mxPoint x="-23" y="-8" as="offset" />
          </mxGeometry>
        </mxCell>
        <mxCell id="mfJ3xq1MAe3Upkgcx-KW-9" value="Participation" style="shape=rhombus;perimeter=rhombusPerimeter;whiteSpace=wrap;html=1;align=center;" vertex="1" parent="1">
          <mxGeometry x="350" y="360" width="120" height="60" as="geometry" />
        </mxCell>
        <mxCell id="mfJ3xq1MAe3Upkgcx-KW-10" value="" style="endArrow=none;html=1;rounded=0;" edge="1" parent="1" source="mfJ3xq1MAe3Upkgcx-KW-9" target="mfJ3xq1MAe3Upkgcx-KW-2">
          <mxGeometry relative="1" as="geometry">
            <mxPoint x="340" y="460" as="sourcePoint" />
            <mxPoint x="500" y="460" as="targetPoint" />
          </mxGeometry>
        </mxCell>
        <mxCell id="mfJ3xq1MAe3Upkgcx-KW-39" value="*" style="edgeLabel;html=1;align=center;verticalAlign=middle;resizable=0;points=[];" vertex="1" connectable="0" parent="mfJ3xq1MAe3Upkgcx-KW-10">
          <mxGeometry x="0.8226" y="-1" relative="1" as="geometry">
            <mxPoint x="-9" y="10" as="offset" />
          </mxGeometry>
        </mxCell>
        <mxCell id="mfJ3xq1MAe3Upkgcx-KW-11" value="" style="endArrow=none;html=1;rounded=0;curved=0;" edge="1" parent="1" source="mfJ3xq1MAe3Upkgcx-KW-3" target="mfJ3xq1MAe3Upkgcx-KW-2">
          <mxGeometry relative="1" as="geometry">
            <mxPoint x="609.9966666666667" y="520" as="sourcePoint" />
            <mxPoint x="926.6633333333334" y="320" as="targetPoint" />
            <Array as="points" />
          </mxGeometry>
        </mxCell>
        <mxCell id="mfJ3xq1MAe3Upkgcx-KW-34" value="1" style="edgeLabel;html=1;align=center;verticalAlign=middle;resizable=0;points=[];" vertex="1" connectable="0" parent="mfJ3xq1MAe3Upkgcx-KW-11">
          <mxGeometry x="-0.9009" y="3" relative="1" as="geometry">
            <mxPoint x="-12" y="-7" as="offset" />
          </mxGeometry>
        </mxCell>
        <mxCell id="mfJ3xq1MAe3Upkgcx-KW-35" value="*" style="edgeLabel;html=1;align=center;verticalAlign=middle;resizable=0;points=[];" vertex="1" connectable="0" parent="mfJ3xq1MAe3Upkgcx-KW-11">
          <mxGeometry x="0.8855" y="1" relative="1" as="geometry">
            <mxPoint x="15" y="-9" as="offset" />
          </mxGeometry>
        </mxCell>
        <mxCell id="mfJ3xq1MAe3Upkgcx-KW-48" value="runs" style="edgeLabel;html=1;align=center;verticalAlign=middle;resizable=0;points=[];" vertex="1" connectable="0" parent="mfJ3xq1MAe3Upkgcx-KW-11">
          <mxGeometry x="0.0491" y="1" relative="1" as="geometry">
            <mxPoint x="-11" y="1" as="offset" />
          </mxGeometry>
        </mxCell>
        <mxCell id="mfJ3xq1MAe3Upkgcx-KW-12" value="" style="endArrow=none;html=1;rounded=0;" edge="1" parent="1" source="mfJ3xq1MAe3Upkgcx-KW-1" target="mfJ3xq1MAe3Upkgcx-KW-13">
          <mxGeometry relative="1" as="geometry">
            <mxPoint x="340" y="460" as="sourcePoint" />
            <mxPoint x="310" y="370" as="targetPoint" />
          </mxGeometry>
        </mxCell>
        <mxCell id="mfJ3xq1MAe3Upkgcx-KW-30" value="*" style="edgeLabel;html=1;align=center;verticalAlign=middle;resizable=0;points=[];" vertex="1" connectable="0" parent="mfJ3xq1MAe3Upkgcx-KW-12">
          <mxGeometry x="-0.8055" y="-1" relative="1" as="geometry">
            <mxPoint x="-9" y="-11" as="offset" />
          </mxGeometry>
        </mxCell>
        <mxCell id="mfJ3xq1MAe3Upkgcx-KW-13" value="Membership" style="shape=rhombus;perimeter=rhombusPerimeter;whiteSpace=wrap;html=1;align=center;" vertex="1" parent="1">
          <mxGeometry x="70" y="360" width="120" height="60" as="geometry" />
        </mxCell>
        <mxCell id="mfJ3xq1MAe3Upkgcx-KW-14" value="" style="endArrow=none;html=1;rounded=0;entryX=0.5;entryY=1;entryDx=0;entryDy=0;exitX=0.5;exitY=0;exitDx=0;exitDy=0;" edge="1" parent="1" source="mfJ3xq1MAe3Upkgcx-KW-4" target="mfJ3xq1MAe3Upkgcx-KW-3">
          <mxGeometry relative="1" as="geometry">
            <mxPoint x="628.5714285714284" y="240" as="sourcePoint" />
            <mxPoint x="280" y="498.4000000000001" as="targetPoint" />
            <Array as="points">
              <mxPoint x="690" y="40" />
              <mxPoint x="970" y="40" />
              <mxPoint x="970" y="850" />
              <mxPoint x="130" y="850" />
            </Array>
          </mxGeometry>
        </mxCell>
        <mxCell id="mfJ3xq1MAe3Upkgcx-KW-32" value="1" style="edgeLabel;html=1;align=center;verticalAlign=middle;resizable=0;points=[];" vertex="1" connectable="0" parent="mfJ3xq1MAe3Upkgcx-KW-14">
          <mxGeometry x="0.9717" relative="1" as="geometry">
            <mxPoint x="10" y="-9" as="offset" />
          </mxGeometry>
        </mxCell>
        <mxCell id="mfJ3xq1MAe3Upkgcx-KW-33" value="*" style="edgeLabel;html=1;align=center;verticalAlign=middle;resizable=0;points=[];" vertex="1" connectable="0" parent="mfJ3xq1MAe3Upkgcx-KW-14">
          <mxGeometry x="-0.9711" y="2" relative="1" as="geometry">
            <mxPoint x="12" y="13" as="offset" />
          </mxGeometry>
        </mxCell>
        <mxCell id="mfJ3xq1MAe3Upkgcx-KW-46" value="shares" style="edgeLabel;html=1;align=center;verticalAlign=middle;resizable=0;points=[];" vertex="1" connectable="0" parent="mfJ3xq1MAe3Upkgcx-KW-14">
          <mxGeometry x="0.4528" y="2" relative="1" as="geometry">
            <mxPoint x="-10" y="-2" as="offset" />
          </mxGeometry>
        </mxCell>
        <mxCell id="mfJ3xq1MAe3Upkgcx-KW-15" value="" style="endArrow=none;html=1;rounded=0;" edge="1" parent="1" source="mfJ3xq1MAe3Upkgcx-KW-2" target="mfJ3xq1MAe3Upkgcx-KW-5">
          <mxGeometry relative="1" as="geometry">
            <mxPoint x="340" y="460" as="sourcePoint" />
            <mxPoint x="500" y="460" as="targetPoint" />
          </mxGeometry>
        </mxCell>
        <mxCell id="mfJ3xq1MAe3Upkgcx-KW-42" value="1" style="edgeLabel;html=1;align=center;verticalAlign=middle;resizable=0;points=[];" vertex="1" connectable="0" parent="mfJ3xq1MAe3Upkgcx-KW-15">
          <mxGeometry x="-0.8917" y="3" relative="1" as="geometry">
            <mxPoint x="13" y="2" as="offset" />
          </mxGeometry>
        </mxCell>
        <mxCell id="mfJ3xq1MAe3Upkgcx-KW-43" value="*" style="edgeLabel;html=1;align=center;verticalAlign=middle;resizable=0;points=[];" vertex="1" connectable="0" parent="mfJ3xq1MAe3Upkgcx-KW-15">
          <mxGeometry x="0.9367" y="3" relative="1" as="geometry">
            <mxPoint x="13" as="offset" />
          </mxGeometry>
        </mxCell>
        <mxCell id="mfJ3xq1MAe3Upkgcx-KW-53" value="contained in" style="edgeLabel;html=1;align=center;verticalAlign=middle;resizable=0;points=[];" vertex="1" connectable="0" parent="mfJ3xq1MAe3Upkgcx-KW-15">
          <mxGeometry x="0.0055" y="1" relative="1" as="geometry">
            <mxPoint as="offset" />
          </mxGeometry>
        </mxCell>
        <mxCell id="mfJ3xq1MAe3Upkgcx-KW-16" value="" style="endArrow=none;html=1;rounded=0;" edge="1" parent="1" source="mfJ3xq1MAe3Upkgcx-KW-5" target="mfJ3xq1MAe3Upkgcx-KW-4">
          <mxGeometry relative="1" as="geometry">
            <mxPoint x="340" y="460" as="sourcePoint" />
            <mxPoint x="500" y="460" as="targetPoint" />
          </mxGeometry>
        </mxCell>
        <mxCell id="mfJ3xq1MAe3Upkgcx-KW-40" value="1" style="edgeLabel;html=1;align=center;verticalAlign=middle;resizable=0;points=[];" vertex="1" connectable="0" parent="mfJ3xq1MAe3Upkgcx-KW-16">
          <mxGeometry x="0.5675" y="-2" relative="1" as="geometry">
            <mxPoint x="-14" y="-38" as="offset" />
          </mxGeometry>
        </mxCell>
        <mxCell id="mfJ3xq1MAe3Upkgcx-KW-41" value="*" style="edgeLabel;html=1;align=center;verticalAlign=middle;resizable=0;points=[];" vertex="1" connectable="0" parent="mfJ3xq1MAe3Upkgcx-KW-16">
          <mxGeometry x="-0.7075" y="-2" relative="1" as="geometry">
            <mxPoint x="-13" y="22" as="offset" />
          </mxGeometry>
        </mxCell>
        <mxCell id="mfJ3xq1MAe3Upkgcx-KW-52" value="contains" style="edgeLabel;html=1;align=center;verticalAlign=middle;resizable=0;points=[];" vertex="1" connectable="0" parent="mfJ3xq1MAe3Upkgcx-KW-16">
          <mxGeometry x="0.0055" y="-1" relative="1" as="geometry">
            <mxPoint as="offset" />
          </mxGeometry>
        </mxCell>
        <mxCell id="mfJ3xq1MAe3Upkgcx-KW-17" value="" style="endArrow=none;html=1;rounded=0;" edge="1" parent="1" source="mfJ3xq1MAe3Upkgcx-KW-2" target="mfJ3xq1MAe3Upkgcx-KW-4">
          <mxGeometry relative="1" as="geometry">
            <mxPoint x="340" y="460" as="sourcePoint" />
            <mxPoint x="500" y="460" as="targetPoint" />
            <Array as="points">
              <mxPoint x="930" y="670" />
              <mxPoint x="930" y="110" />
            </Array>
          </mxGeometry>
        </mxCell>
        <mxCell id="mfJ3xq1MAe3Upkgcx-KW-36" value="1" style="edgeLabel;html=1;align=center;verticalAlign=middle;resizable=0;points=[];" vertex="1" connectable="0" parent="mfJ3xq1MAe3Upkgcx-KW-17">
          <mxGeometry x="0.9504" y="-3" relative="1" as="geometry">
            <mxPoint x="-6" y="13" as="offset" />
          </mxGeometry>
        </mxCell>
        <mxCell id="mfJ3xq1MAe3Upkgcx-KW-37" value="1" style="edgeLabel;html=1;align=center;verticalAlign=middle;resizable=0;points=[];" vertex="1" connectable="0" parent="mfJ3xq1MAe3Upkgcx-KW-17">
          <mxGeometry x="-0.9376" y="-1" relative="1" as="geometry">
            <mxPoint x="-10" y="-11" as="offset" />
          </mxGeometry>
        </mxCell>
        <mxCell id="mfJ3xq1MAe3Upkgcx-KW-51" value="produced by" style="edgeLabel;html=1;align=center;verticalAlign=middle;resizable=0;points=[];" vertex="1" connectable="0" parent="mfJ3xq1MAe3Upkgcx-KW-17">
          <mxGeometry x="0.0269" relative="1" as="geometry">
            <mxPoint y="9" as="offset" />
          </mxGeometry>
        </mxCell>
        <mxCell id="mfJ3xq1MAe3Upkgcx-KW-22" value="" style="endArrow=none;html=1;rounded=0;" edge="1" parent="1" source="mfJ3xq1MAe3Upkgcx-KW-1" target="mfJ3xq1MAe3Upkgcx-KW-5">
          <mxGeometry relative="1" as="geometry">
            <mxPoint x="340" y="460" as="sourcePoint" />
            <mxPoint x="500" y="460" as="targetPoint" />
          </mxGeometry>
        </mxCell>
        <mxCell id="mfJ3xq1MAe3Upkgcx-KW-44" value="1" style="edgeLabel;html=1;align=center;verticalAlign=middle;resizable=0;points=[];" vertex="1" connectable="0" parent="mfJ3xq1MAe3Upkgcx-KW-22">
          <mxGeometry x="-0.8844" y="-2" relative="1" as="geometry">
            <mxPoint x="-14" y="-24" as="offset" />
          </mxGeometry>
        </mxCell>
        <mxCell id="mfJ3xq1MAe3Upkgcx-KW-45" value="*" style="edgeLabel;html=1;align=center;verticalAlign=middle;resizable=0;points=[];" vertex="1" connectable="0" parent="mfJ3xq1MAe3Upkgcx-KW-22">
          <mxGeometry x="0.8936" y="-1" relative="1" as="geometry">
            <mxPoint x="24" y="1" as="offset" />
          </mxGeometry>
        </mxCell>
        <mxCell id="mfJ3xq1MAe3Upkgcx-KW-50" value="claims" style="edgeLabel;html=1;align=center;verticalAlign=middle;resizable=0;points=[];" vertex="1" connectable="0" parent="mfJ3xq1MAe3Upkgcx-KW-22">
          <mxGeometry x="0.0116" relative="1" as="geometry">
            <mxPoint x="-3" y="-1" as="offset" />
          </mxGeometry>
        </mxCell>
        <mxCell id="mfJ3xq1MAe3Upkgcx-KW-24" value="" style="endArrow=none;html=1;rounded=0;" edge="1" parent="1" source="mfJ3xq1MAe3Upkgcx-KW-13" target="mfJ3xq1MAe3Upkgcx-KW-3">
          <mxGeometry relative="1" as="geometry">
            <mxPoint x="100" y="170" as="sourcePoint" />
            <mxPoint x="100" y="480" as="targetPoint" />
          </mxGeometry>
        </mxCell>
        <mxCell id="mfJ3xq1MAe3Upkgcx-KW-31" value="*" style="edgeLabel;html=1;align=center;verticalAlign=middle;resizable=0;points=[];" vertex="1" connectable="0" parent="mfJ3xq1MAe3Upkgcx-KW-24">
          <mxGeometry x="0.8855" y="1" relative="1" as="geometry">
            <mxPoint x="-11" y="3" as="offset" />
          </mxGeometry>
        </mxCell>
        <mxCell id="mfJ3xq1MAe3Upkgcx-KW-4" value="Schedule" style="whiteSpace=wrap;html=1;align=center;" vertex="1" parent="1">
          <mxGeometry x="630" y="80" width="120" height="60" as="geometry" />
        </mxCell>
        <mxCell id="mfJ3xq1MAe3Upkgcx-KW-54" value="id" style="ellipse;whiteSpace=wrap;html=1;align=center;fontStyle=4;" vertex="1" parent="1">
          <mxGeometry x="20" y="-200" width="100" height="40" as="geometry" />
        </mxCell>
        <mxCell id="mfJ3xq1MAe3Upkgcx-KW-56" value="expires" style="ellipse;whiteSpace=wrap;html=1;align=center;" vertex="1" parent="1">
          <mxGeometry x="140" y="-200" width="100" height="40" as="geometry" />
        </mxCell>
        <mxCell id="mfJ3xq1MAe3Upkgcx-KW-57" value="" style="endArrow=none;html=1;rounded=0;" edge="1" parent="1" source="mfJ3xq1MAe3Upkgcx-KW-54" target="mfJ3xq1MAe3Upkgcx-KW-6">
          <mxGeometry relative="1" as="geometry">
            <mxPoint x="340" y="60" as="sourcePoint" />
            <mxPoint x="500" y="60" as="targetPoint" />
          </mxGeometry>
        </mxCell>
        <mxCell id="mfJ3xq1MAe3Upkgcx-KW-58" value="" style="endArrow=none;html=1;rounded=0;" edge="1" parent="1" source="mfJ3xq1MAe3Upkgcx-KW-56" target="mfJ3xq1MAe3Upkgcx-KW-6">
          <mxGeometry relative="1" as="geometry">
            <mxPoint x="340" y="60" as="sourcePoint" />
            <mxPoint x="500" y="60" as="targetPoint" />
          </mxGeometry>
        </mxCell>
        <mxCell id="mfJ3xq1MAe3Upkgcx-KW-60" value="name" style="ellipse;whiteSpace=wrap;html=1;align=center;" vertex="1" parent="1">
          <mxGeometry x="-70" y="680" width="100" height="40" as="geometry" />
        </mxCell>
        <mxCell id="mfJ3xq1MAe3Upkgcx-KW-61" value="id" style="ellipse;whiteSpace=wrap;html=1;align=center;fontStyle=4;" vertex="1" parent="1">
          <mxGeometry x="-70" y="620" width="100" height="40" as="geometry" />
        </mxCell>
        <mxCell id="mfJ3xq1MAe3Upkgcx-KW-62" value="" style="endArrow=none;html=1;rounded=0;" edge="1" parent="1" source="mfJ3xq1MAe3Upkgcx-KW-61" target="mfJ3xq1MAe3Upkgcx-KW-3">
          <mxGeometry relative="1" as="geometry">
            <mxPoint x="340" y="460" as="sourcePoint" />
            <mxPoint x="500" y="460" as="targetPoint" />
          </mxGeometry>
        </mxCell>
        <mxCell id="mfJ3xq1MAe3Upkgcx-KW-63" value="" style="endArrow=none;html=1;rounded=0;" edge="1" parent="1" source="mfJ3xq1MAe3Upkgcx-KW-60" target="mfJ3xq1MAe3Upkgcx-KW-3">
          <mxGeometry relative="1" as="geometry">
            <mxPoint x="340" y="460" as="sourcePoint" />
            <mxPoint x="500" y="460" as="targetPoint" />
          </mxGeometry>
        </mxCell>
        <mxCell id="mfJ3xq1MAe3Upkgcx-KW-64" value="admin" style="ellipse;whiteSpace=wrap;html=1;align=center;" vertex="1" parent="1">
          <mxGeometry x="-70" y="370" width="100" height="40" as="geometry" />
        </mxCell>
        <mxCell id="mfJ3xq1MAe3Upkgcx-KW-65" value="" style="endArrow=none;html=1;rounded=0;" edge="1" parent="1" source="mfJ3xq1MAe3Upkgcx-KW-64" target="mfJ3xq1MAe3Upkgcx-KW-13">
          <mxGeometry relative="1" as="geometry">
            <mxPoint x="340" y="360" as="sourcePoint" />
            <mxPoint x="500" y="360" as="targetPoint" />
          </mxGeometry>
        </mxCell>
        <mxCell id="mfJ3xq1MAe3Upkgcx-KW-66" value="id" style="ellipse;whiteSpace=wrap;html=1;align=center;fontStyle=4;" vertex="1" parent="1">
          <mxGeometry x="-10" y="20" width="100" height="40" as="geometry" />
        </mxCell>
        <mxCell id="mfJ3xq1MAe3Upkgcx-KW-67" value="" style="endArrow=none;html=1;rounded=0;" edge="1" parent="1" source="mfJ3xq1MAe3Upkgcx-KW-66" target="mfJ3xq1MAe3Upkgcx-KW-1">
          <mxGeometry relative="1" as="geometry">
            <mxPoint x="340" y="360" as="sourcePoint" />
            <mxPoint x="500" y="360" as="targetPoint" />
          </mxGeometry>
        </mxCell>
        <mxCell id="mfJ3xq1MAe3Upkgcx-KW-69" value="name" style="ellipse;whiteSpace=wrap;html=1;align=center;" vertex="1" parent="1">
          <mxGeometry x="-120" y="40" width="100" height="40" as="geometry" />
        </mxCell>
        <mxCell id="mfJ3xq1MAe3Upkgcx-KW-70" value="email" style="ellipse;whiteSpace=wrap;html=1;align=center;" vertex="1" parent="1">
          <mxGeometry x="-120" y="140" width="100" height="40" as="geometry" />
        </mxCell>
        <mxCell id="mfJ3xq1MAe3Upkgcx-KW-71" value="salt" style="ellipse;whiteSpace=wrap;html=1;align=center;" vertex="1" parent="1">
          <mxGeometry x="-70" y="90" width="100" height="40" as="geometry" />
        </mxCell>
        <mxCell id="mfJ3xq1MAe3Upkgcx-KW-74" value="hash" style="ellipse;whiteSpace=wrap;html=1;align=center;" vertex="1" parent="1">
          <mxGeometry x="-10" y="160" width="100" height="40" as="geometry" />
        </mxCell>
        <mxCell id="mfJ3xq1MAe3Upkgcx-KW-77" value="" style="endArrow=none;html=1;rounded=0;" edge="1" parent="1" source="mfJ3xq1MAe3Upkgcx-KW-69" target="mfJ3xq1MAe3Upkgcx-KW-1">
          <mxGeometry relative="1" as="geometry">
            <mxPoint x="340" y="160" as="sourcePoint" />
            <mxPoint x="500" y="160" as="targetPoint" />
          </mxGeometry>
        </mxCell>
        <mxCell id="mfJ3xq1MAe3Upkgcx-KW-78" value="" style="endArrow=none;html=1;rounded=0;" edge="1" parent="1" source="mfJ3xq1MAe3Upkgcx-KW-70" target="mfJ3xq1MAe3Upkgcx-KW-1">
          <mxGeometry relative="1" as="geometry">
            <mxPoint x="340" y="160" as="sourcePoint" />
            <mxPoint x="500" y="160" as="targetPoint" />
          </mxGeometry>
        </mxCell>
        <mxCell id="mfJ3xq1MAe3Upkgcx-KW-79" value="" style="endArrow=none;html=1;rounded=0;" edge="1" parent="1" source="mfJ3xq1MAe3Upkgcx-KW-74" target="mfJ3xq1MAe3Upkgcx-KW-1">
          <mxGeometry relative="1" as="geometry">
            <mxPoint x="340" y="160" as="sourcePoint" />
            <mxPoint x="500" y="160" as="targetPoint" />
          </mxGeometry>
        </mxCell>
        <mxCell id="mfJ3xq1MAe3Upkgcx-KW-80" value="" style="endArrow=none;html=1;rounded=0;" edge="1" parent="1" source="mfJ3xq1MAe3Upkgcx-KW-1" target="mfJ3xq1MAe3Upkgcx-KW-71">
          <mxGeometry relative="1" as="geometry">
            <mxPoint x="340" y="160" as="sourcePoint" />
            <mxPoint x="500" y="160" as="targetPoint" />
          </mxGeometry>
        </mxCell>
        <mxCell id="mfJ3xq1MAe3Upkgcx-KW-82" value="id" style="ellipse;whiteSpace=wrap;html=1;align=center;fontStyle=4;" vertex="1" parent="1">
          <mxGeometry x="490" y="690" width="100" height="40" as="geometry" />
        </mxCell>
        <mxCell id="mfJ3xq1MAe3Upkgcx-KW-83" value="" style="endArrow=none;html=1;rounded=0;" edge="1" parent="1" source="mfJ3xq1MAe3Upkgcx-KW-82" target="mfJ3xq1MAe3Upkgcx-KW-2">
          <mxGeometry relative="1" as="geometry">
            <mxPoint x="340" y="460" as="sourcePoint" />
            <mxPoint x="500" y="460" as="targetPoint" />
          </mxGeometry>
        </mxCell>
        <mxCell id="mfJ3xq1MAe3Upkgcx-KW-84" value="start" style="ellipse;whiteSpace=wrap;html=1;align=center;" vertex="1" parent="1">
          <mxGeometry x="580" y="720" width="100" height="40" as="geometry" />
        </mxCell>
        <mxCell id="mfJ3xq1MAe3Upkgcx-KW-85" value="end" style="ellipse;whiteSpace=wrap;html=1;align=center;" vertex="1" parent="1">
          <mxGeometry x="700" y="720" width="100" height="40" as="geometry" />
        </mxCell>
        <mxCell id="mfJ3xq1MAe3Upkgcx-KW-86" value="turn_duration" style="ellipse;whiteSpace=wrap;html=1;align=center;" vertex="1" parent="1">
          <mxGeometry x="640" y="770" width="100" height="40" as="geometry" />
        </mxCell>
        <mxCell id="mfJ3xq1MAe3Upkgcx-KW-87" value="active_start" style="ellipse;whiteSpace=wrap;html=1;align=center;" vertex="1" parent="1">
          <mxGeometry x="790" y="690" width="100" height="40" as="geometry" />
        </mxCell>
        <mxCell id="mfJ3xq1MAe3Upkgcx-KW-88" value="active_end" style="ellipse;whiteSpace=wrap;html=1;align=center;" vertex="1" parent="1">
          <mxGeometry x="470" y="740" width="100" height="40" as="geometry" />
        </mxCell>
        <mxCell id="mfJ3xq1MAe3Upkgcx-KW-89" value="paused" style="ellipse;whiteSpace=wrap;html=1;align=center;" vertex="1" parent="1">
          <mxGeometry x="810" y="740" width="100" height="40" as="geometry" />
        </mxCell>
        <mxCell id="mfJ3xq1MAe3Upkgcx-KW-90" value="" style="endArrow=none;html=1;rounded=0;" edge="1" parent="1" source="mfJ3xq1MAe3Upkgcx-KW-84" target="mfJ3xq1MAe3Upkgcx-KW-2">
          <mxGeometry relative="1" as="geometry">
            <mxPoint x="340" y="660" as="sourcePoint" />
            <mxPoint x="500" y="660" as="targetPoint" />
          </mxGeometry>
        </mxCell>
        <mxCell id="mfJ3xq1MAe3Upkgcx-KW-91" value="" style="endArrow=none;html=1;rounded=0;" edge="1" parent="1" source="mfJ3xq1MAe3Upkgcx-KW-85" target="mfJ3xq1MAe3Upkgcx-KW-2">
          <mxGeometry relative="1" as="geometry">
            <mxPoint x="340" y="660" as="sourcePoint" />
            <mxPoint x="500" y="660" as="targetPoint" />
          </mxGeometry>
        </mxCell>
        <mxCell id="mfJ3xq1MAe3Upkgcx-KW-92" value="" style="endArrow=none;html=1;rounded=0;" edge="1" parent="1" source="mfJ3xq1MAe3Upkgcx-KW-86" target="mfJ3xq1MAe3Upkgcx-KW-2">
          <mxGeometry relative="1" as="geometry">
            <mxPoint x="340" y="660" as="sourcePoint" />
            <mxPoint x="500" y="660" as="targetPoint" />
          </mxGeometry>
        </mxCell>
        <mxCell id="mfJ3xq1MAe3Upkgcx-KW-93" value="" style="endArrow=none;html=1;rounded=0;" edge="1" parent="1" source="mfJ3xq1MAe3Upkgcx-KW-87" target="mfJ3xq1MAe3Upkgcx-KW-2">
          <mxGeometry relative="1" as="geometry">
            <mxPoint x="340" y="660" as="sourcePoint" />
            <mxPoint x="500" y="660" as="targetPoint" />
          </mxGeometry>
        </mxCell>
        <mxCell id="mfJ3xq1MAe3Upkgcx-KW-94" value="" style="endArrow=none;html=1;rounded=0;" edge="1" parent="1" source="mfJ3xq1MAe3Upkgcx-KW-88" target="mfJ3xq1MAe3Upkgcx-KW-2">
          <mxGeometry relative="1" as="geometry">
            <mxPoint x="340" y="660" as="sourcePoint" />
            <mxPoint x="500" y="660" as="targetPoint" />
          </mxGeometry>
        </mxCell>
        <mxCell id="mfJ3xq1MAe3Upkgcx-KW-95" value="" style="endArrow=none;html=1;rounded=0;" edge="1" parent="1" source="mfJ3xq1MAe3Upkgcx-KW-89" target="mfJ3xq1MAe3Upkgcx-KW-2">
          <mxGeometry relative="1" as="geometry">
            <mxPoint x="340" y="660" as="sourcePoint" />
            <mxPoint x="500" y="660" as="targetPoint" />
          </mxGeometry>
        </mxCell>
        <mxCell id="mfJ3xq1MAe3Upkgcx-KW-96" value="passing" style="ellipse;whiteSpace=wrap;html=1;align=center;" vertex="1" parent="1">
          <mxGeometry x="320" y="430" width="100" height="40" as="geometry" />
        </mxCell>
        <mxCell id="mfJ3xq1MAe3Upkgcx-KW-97" value="turn_order" style="ellipse;whiteSpace=wrap;html=1;align=center;" vertex="1" parent="1">
          <mxGeometry x="250" y="390" width="100" height="40" as="geometry" />
        </mxCell>
        <mxCell id="mfJ3xq1MAe3Upkgcx-KW-98" value="" style="endArrow=none;html=1;rounded=0;" edge="1" parent="1" source="mfJ3xq1MAe3Upkgcx-KW-97" target="mfJ3xq1MAe3Upkgcx-KW-9">
          <mxGeometry relative="1" as="geometry">
            <mxPoint x="340" y="460" as="sourcePoint" />
            <mxPoint x="500" y="460" as="targetPoint" />
          </mxGeometry>
        </mxCell>
        <mxCell id="mfJ3xq1MAe3Upkgcx-KW-99" value="" style="endArrow=none;html=1;rounded=0;" edge="1" parent="1" source="mfJ3xq1MAe3Upkgcx-KW-9" target="mfJ3xq1MAe3Upkgcx-KW-96">
          <mxGeometry relative="1" as="geometry">
            <mxPoint x="340" y="460" as="sourcePoint" />
            <mxPoint x="500" y="460" as="targetPoint" />
          </mxGeometry>
        </mxCell>
        <mxCell id="mfJ3xq1MAe3Upkgcx-KW-100" value="start" style="ellipse;whiteSpace=wrap;html=1;align=center;" vertex="1" parent="1">
          <mxGeometry x="790" y="370" width="100" height="40" as="geometry" />
        </mxCell>
        <mxCell id="mfJ3xq1MAe3Upkgcx-KW-101" value="end" style="ellipse;whiteSpace=wrap;html=1;align=center;" vertex="1" parent="1">
          <mxGeometry x="730" y="440" width="100" height="40" as="geometry" />
        </mxCell>
        <mxCell id="mfJ3xq1MAe3Upkgcx-KW-102" value="" style="endArrow=none;html=1;rounded=0;" edge="1" parent="1" source="mfJ3xq1MAe3Upkgcx-KW-5" target="mfJ3xq1MAe3Upkgcx-KW-100">
          <mxGeometry relative="1" as="geometry">
            <mxPoint x="340" y="460" as="sourcePoint" />
            <mxPoint x="500" y="460" as="targetPoint" />
          </mxGeometry>
        </mxCell>
        <mxCell id="mfJ3xq1MAe3Upkgcx-KW-103" value="" style="endArrow=none;html=1;rounded=0;" edge="1" parent="1" source="mfJ3xq1MAe3Upkgcx-KW-5" target="mfJ3xq1MAe3Upkgcx-KW-101">
          <mxGeometry relative="1" as="geometry">
            <mxPoint x="340" y="460" as="sourcePoint" />
            <mxPoint x="500" y="460" as="targetPoint" />
          </mxGeometry>
        </mxCell>
        <mxCell id="mfJ3xq1MAe3Upkgcx-KW-104" value="id" style="ellipse;whiteSpace=wrap;html=1;align=center;fontStyle=4;" vertex="1" parent="1">
          <mxGeometry x="730" y="300" width="100" height="40" as="geometry" />
        </mxCell>
        <mxCell id="mfJ3xq1MAe3Upkgcx-KW-105" value="" style="endArrow=none;html=1;rounded=0;" edge="1" parent="1" source="mfJ3xq1MAe3Upkgcx-KW-5" target="mfJ3xq1MAe3Upkgcx-KW-104">
          <mxGeometry relative="1" as="geometry">
            <mxPoint x="340" y="460" as="sourcePoint" />
            <mxPoint x="500" y="460" as="targetPoint" />
          </mxGeometry>
        </mxCell>
        <mxCell id="mfJ3xq1MAe3Upkgcx-KW-106" value="id" style="ellipse;whiteSpace=wrap;html=1;align=center;fontStyle=4;" vertex="1" parent="1">
          <mxGeometry x="490" y="60" width="100" height="40" as="geometry" />
        </mxCell>
        <mxCell id="mfJ3xq1MAe3Upkgcx-KW-107" value="date" style="ellipse;whiteSpace=wrap;html=1;align=center;" vertex="1" parent="1">
          <mxGeometry x="490" y="120" width="100" height="40" as="geometry" />
        </mxCell>
        <mxCell id="mfJ3xq1MAe3Upkgcx-KW-108" value="" style="endArrow=none;html=1;rounded=0;" edge="1" parent="1" source="mfJ3xq1MAe3Upkgcx-KW-4" target="mfJ3xq1MAe3Upkgcx-KW-106">
          <mxGeometry relative="1" as="geometry">
            <mxPoint x="340" y="60" as="sourcePoint" />
            <mxPoint x="500" y="60" as="targetPoint" />
          </mxGeometry>
        </mxCell>
        <mxCell id="mfJ3xq1MAe3Upkgcx-KW-109" value="" style="endArrow=none;html=1;rounded=0;" edge="1" parent="1" source="mfJ3xq1MAe3Upkgcx-KW-4" target="mfJ3xq1MAe3Upkgcx-KW-107">
          <mxGeometry relative="1" as="geometry">
            <mxPoint x="340" y="60" as="sourcePoint" />
            <mxPoint x="500" y="60" as="targetPoint" />
          </mxGeometry>
        </mxCell>
      </root>
    </mxGraphModel>
  </diagram>
</mxfile>
